<svg fill="green" version="1.1" xmlns="http://www.w3.org/2000/svg" xmlns:xlink="http://www.w3.org/1999/xlink" x="0px" y="0px" viewBox="0 0 1000 1000" enable-background="new 0 0 1000 1000" xml:space="preserve">
<metadata> Svg Vector Icons : http://www.onlinewebfonts.com/icon </metadata>
<g><path d="M500,928.8c-236.8,0-428.8-192-428.8-428.8S263.2,71.3,500,71.3c236.8,0,428.8,192,428.8,428.8S736.8,928.8,500,928.8L500,928.8z M500,10C229.4,10,10,229.3,10,500c0,270.7,219.4,490,490,490c270.6,0,490-219.3,490-490C990,229.3,770.6,10,500,10L500,10z M683.8,469.4H530.6V316.3c0-16.8-13.7-30.6-30.6-30.6c-16.9,0-30.6,13.8-30.6,30.6v153.1H316.3c-16.9,0-30.6,13.8-30.6,30.6c0,16.8,13.7,30.6,30.6,30.6h153.1v153.1c0,16.8,13.7,30.6,30.6,30.6c16.9,0,30.6-13.8,30.6-30.6V530.6h153.1c16.9,0,30.6-13.8,30.6-30.6C714.4,483.2,700.7,469.4,683.8,469.4L683.8,469.4z"/></g>
</svg>