<svg version="1.0" xmlns="http://www.w3.org/2000/svg"
 width="972.000000pt" height="266.000000pt" viewBox="0 0 972.000000 266.000000"
 preserveAspectRatio="xMidYMid meet">

<g transform="translate(0.000000,266.000000) scale(0.100000,-0.100000)"
fill="#000000" stroke="none">
<path d="M0 1330 l0 -1330 4860 0 4860 0 0 1330 0 1330 -4860 0 -4860 0 0
-1330z m9690 -5 l0 -1315 -4840 0 -4840 0 0 1308 c0 720 3 1312 7 1315 3 4
2181 7 4840 7 l4833 0 0 -1315z"/>
<path d="M250 1325 l0 -1085 2300 0 2300 0 0 1085 0 1085 -2300 0 -2300 0 0
-1085z m2973 251 c58 -17 101 -48 138 -99 38 -52 38 -77 1 -77 -22 0 -34 9
-53 37 -38 60 -91 84 -170 81 -78 -4 -126 -34 -159 -98 -22 -44 -27 -131 -9
-177 14 -38 57 -83 96 -99 41 -18 124 -18 166 0 32 13 97 78 97 96 0 6 16 10
36 10 32 0 35 -2 28 -22 -11 -36 -56 -94 -91 -118 -190 -130 -429 7 -411 235
14 173 168 280 331 231z m-2503 -26 l0 -30 -115 0 -115 0 0 -90 0 -90 106 0
105 0 -3 -27 -3 -28 -102 -3 -103 -3 0 -104 0 -105 -35 0 -35 0 0 255 0 255
150 0 150 0 0 -30z m230 -225 l0 -255 -35 0 -35 0 0 255 0 255 35 0 35 0 0
-255z m402 56 l138 -194 0 196 0 197 35 0 35 0 0 -255 0 -255 -33 0 c-31 0
-39 9 -167 191 l-135 192 -3 -192 -2 -191 -35 0 -35 0 0 256 0 255 32 -3 c30
-3 44 -20 170 -197z m716 -48 c56 -137 102 -251 102 -255 0 -5 -15 -8 -33 -8
-30 0 -34 4 -52 53 l-21 52 -128 0 -129 0 -20 -52 c-19 -50 -22 -53 -54 -53
-29 0 -34 3 -29 18 4 9 51 124 104 254 97 237 97 238 128 238 30 0 30 0 132
-247z m448 50 l139 -198 3 198 2 197 30 0 30 0 0 -256 0 -255 -32 3 c-29 3
-44 21 -167 196 l-136 192 -3 -195 -2 -195 -30 0 -30 0 0 255 0 255 28 0 c26
0 43 -20 168 -197z m1124 -58 l0 -255 -35 0 -35 0 0 255 0 255 35 0 35 0 0
-255z m510 225 l0 -30 -125 0 -125 0 0 -80 0 -80 115 0 115 0 0 -30 0 -30
-115 0 -115 0 0 -85 0 -85 125 0 125 0 0 -30 0 -30 -155 0 -155 0 0 255 0 255
155 0 155 0 0 -30z m460 8 c65 -34 85 -67 85 -143 0 -73 -19 -108 -78 -140
l-35 -19 64 -93 65 -93 -40 0 c-39 0 -41 2 -102 90 l-61 90 -54 0 -54 0 0 -90
0 -90 -35 0 -35 0 0 255 0 255 118 0 c102 0 123 -3 162 -22z"/>
<path d="M1888 1368 l-46 -113 90 -3 c50 -1 92 -1 94 1 4 4 -75 208 -86 220
-3 4 -27 -43 -52 -105z"/>
<path d="M4400 1415 l0 -105 58 0 c125 1 172 29 172 104 0 78 -44 106 -167
106 l-63 0 0 -105z"/>
<path d="M5347 1753 c-7 -11 -107 -271 -107 -278 0 -3 18 -5 40 -5 29 0 42 5
50 20 8 16 21 20 60 20 40 0 50 -4 55 -20 5 -16 15 -20 52 -20 32 0 44 4 40
13 -3 6 -28 72 -57 145 l-52 132 -38 0 c-21 0 -41 -3 -43 -7z m57 -127 c3 -13
9 -31 12 -40 5 -13 -1 -16 -25 -16 -34 0 -36 3 -20 49 13 37 25 40 33 7z"/>
<path d="M5670 1615 l0 -145 40 0 40 0 0 40 c0 32 4 40 18 40 11 0 27 -16 41
-40 21 -37 25 -40 68 -40 l45 0 -27 45 -26 45 20 27 c23 28 28 91 10 125 -17
31 -71 48 -154 48 l-75 0 0 -145z m155 40 c0 -27 -3 -30 -37 -33 -38 -3 -38
-3 -38 33 0 36 0 36 38 33 34 -3 37 -6 37 -33z"/>
<path d="M6017 1668 c-19 -51 -45 -117 -56 -145 l-21 -53 44 0 c36 0 46 4 51
20 5 17 15 20 60 20 44 0 53 -3 58 -20 4 -16 14 -20 46 -20 23 0 41 3 41 7 0
4 -24 70 -52 145 l-53 138 -41 0 -41 0 -36 -92z m102 -85 c1 -8 -11 -13 -30
-13 -26 0 -30 3 -24 18 4 9 12 30 18 47 l10 29 13 -34 c7 -19 13 -41 13 -47z"/>
<path d="M6280 1615 l0 -145 40 0 40 0 0 73 1 72 30 -37 c42 -51 75 -51 109
-1 l25 37 3 -72 3 -72 39 0 40 0 0 145 0 145 -33 0 c-30 0 -39 -7 -82 -70 -54
-79 -44 -81 -114 23 -28 41 -36 47 -66 47 l-35 0 0 -145z"/>
<path d="M6650 1753 c0 -5 23 -48 50 -97 41 -72 50 -97 50 -137 l0 -49 40 0
40 0 0 51 c0 43 8 66 50 140 28 49 50 91 50 94 0 3 -20 5 -45 5 -44 0 -45 -1
-71 -52 l-27 -53 -25 53 c-25 51 -27 52 -69 52 -24 0 -43 -3 -43 -7z"/>
<path d="M7143 1743 c-3 -10 -28 -74 -55 -142 -26 -68 -48 -126 -48 -128 0 -1
20 -3 44 -3 35 0 45 4 49 20 4 17 14 20 57 20 43 0 53 -3 57 -20 4 -16 14 -20
50 -20 52 0 54 -16 -16 163 l-48 122 -42 3 c-32 3 -43 -1 -48 -15z m65 -126
c17 -46 16 -47 -19 -47 -24 0 -30 3 -25 16 3 9 9 27 12 40 8 33 18 30 32 -9z"/>
<path d="M7360 1720 l0 -40 45 0 45 0 0 -105 0 -105 40 0 40 0 0 105 0 105 40
0 40 0 0 40 0 40 -125 0 -125 0 0 -40z"/>
<path d="M7640 1720 l0 -40 45 0 45 0 0 -105 0 -105 40 0 40 0 0 105 0 105 45
0 45 0 0 40 0 40 -130 0 -130 0 0 -40z"/>
<path d="M7969 1615 l-57 -145 45 0 c36 0 46 4 50 20 5 17 14 20 58 20 45 0
55 -3 60 -20 5 -16 15 -20 51 -20 l44 0 -13 33 c-8 17 -33 83 -57 145 l-43
112 -41 0 -41 0 -56 -145z m114 0 l16 -45 -30 0 c-16 0 -29 5 -29 12 0 12 22
78 26 78 1 0 9 -20 17 -45z"/>
<path d="M8250 1615 l0 -145 100 0 100 0 0 40 0 40 -55 0 -55 0 0 105 0 105
-45 0 -45 0 0 -145z"/>
<path d="M8500 1615 l0 -145 101 0 100 0 -3 38 -3 37 -57 3 -58 3 0 104 0 105
-40 0 -40 0 0 -145z"/>
<path d="M8787 1668 c-19 -51 -45 -117 -56 -145 l-21 -53 44 0 c36 0 46 4 51
20 5 17 15 20 60 20 44 0 53 -3 58 -20 4 -16 14 -20 46 -20 23 0 41 3 41 7 0
4 -24 70 -52 145 l-53 138 -41 0 -41 0 -36 -92z m102 -85 c1 -8 -11 -13 -30
-13 -26 0 -30 3 -24 18 4 9 12 30 18 47 l10 29 13 -34 c7 -19 13 -41 13 -47z"/>
<path d="M6045 1185 c-54 -53 -17 -133 68 -149 38 -7 63 -29 52 -46 -10 -15
-55 -12 -61 5 -8 20 -84 21 -84 1 0 -53 51 -81 143 -77 36 1 87 51 87 85 0 37
-38 72 -97 91 -40 12 -53 21 -53 36 0 23 48 27 56 4 4 -10 20 -15 45 -15 32 0
39 4 39 19 0 11 -14 31 -31 45 -43 37 -129 37 -164 1z"/>
<path d="M6353 1190 c-55 -33 -81 -91 -69 -155 8 -41 49 -93 85 -107 44 -17
119 -11 155 12 89 55 86 203 -5 252 -45 24 -125 24 -166 -2z m132 -75 c14 -13
25 -36 25 -50 0 -14 -11 -37 -25 -50 -60 -61 -150 7 -110 84 24 48 72 55 110
16z"/>
<path d="M6640 1065 l0 -145 100 0 100 0 0 40 0 40 -60 0 -60 0 0 105 0 105
-40 0 -40 0 0 -145z"/>
<path d="M6882 1095 c3 -108 5 -116 29 -140 49 -50 139 -50 188 -1 25 25 26
33 29 141 l4 115 -41 0 -41 0 0 -94 c0 -96 -11 -126 -45 -126 -34 0 -45 30
-45 126 l0 94 -41 0 -41 0 4 -115z"/>
<path d="M7170 1170 l0 -40 45 0 45 0 0 -105 0 -105 40 0 40 0 0 105 0 105 45
0 45 0 0 40 0 40 -130 0 -130 0 0 -40z"/>
<path d="M7470 1065 l0 -145 45 0 45 0 0 145 0 145 -45 0 -45 0 0 -145z"/>
<path d="M7673 1190 c-48 -29 -67 -65 -67 -126 0 -61 21 -97 73 -127 41 -25
122 -24 164 0 90 53 92 200 4 253 -43 27 -131 27 -174 0z m131 -71 c33 -26 35
-73 4 -106 -44 -47 -118 -15 -118 52 0 39 31 75 66 75 12 0 33 -9 48 -21z"/>
<path d="M7960 1065 l0 -145 40 0 39 0 3 73 3 72 55 -72 c48 -65 58 -73 87
-73 l33 0 0 145 0 145 -40 0 -39 0 -3 -72 -3 -72 -53 72 c-49 65 -57 72 -88
72 l-34 0 0 -145z"/>
</g>
</svg>
